<?xml version="1.0" encoding="UTF-8" standalone="no"?>
<svg
   id="Layer_6"
   version="1.1"
   viewBox="0 0 525.90631 484.76904"
   sodipodi:docname="substr.svg"
   inkscape:version="1.2.2 (b0a8486541, 2022-12-01)"
   width="525.90631"
   height="484.76904"
   xmlns:inkscape="http://www.inkscape.org/namespaces/inkscape"
   xmlns:sodipodi="http://sodipodi.sourceforge.net/DTD/sodipodi-0.dtd"
   xmlns="http://www.w3.org/2000/svg"
   xmlns:svg="http://www.w3.org/2000/svg">
  <sodipodi:namedview
     id="namedview9"
     pagecolor="#ffffff"
     bordercolor="#000000"
     borderopacity="0.25"
     inkscape:showpageshadow="2"
     inkscape:pageopacity="0.0"
     inkscape:pagecheckerboard="0"
     inkscape:deskcolor="#d1d1d1"
     showgrid="false"
     inkscape:zoom="1.1780509"
     inkscape:cx="147.7016"
     inkscape:cy="283.94359"
     inkscape:window-width="1920"
     inkscape:window-height="1008"
     inkscape:window-x="0"
     inkscape:window-y="0"
     inkscape:window-maximized="1"
     inkscape:current-layer="Layer_6" />
  <path
     id="path357"
     style="fill:#ffffff"
     class="st0"
     d="m 396.66902,0.01364137 c -88.60484,0.01434 -177.21017,-0.006 -265.8147,0.06986 C 112.8531,0.80864437 95.553805,11.319323 86.71547,27.034263 c -5.212232,9.018086 -7.592103,19.561403 -7.148012,29.943831 0.003,10.265757 -0.01175,20.531558 0.02734,30.797265 -10.329544,0.0324 -20.667191,-0.16247 -30.989874,0.26661 -18.085698,1.63737 -34.948308,13.199661 -42.8951376,29.544211 -4.1966437,8.35931 -5.99885254,17.81177 -5.67234504,27.13292 0.1061264,12.76172 -0.1523826,25.52932 0.2251165,38.28684 1.31263994,18.03915 12.53172814,34.99856 28.61589514,43.27017 8.608317,4.55147 18.459727,6.52617 28.161263,6.16741 7.509825,-0.05 15.019789,-0.009 22.529691,-0.0139 0.03711,10.28329 -0.153165,20.5745 0.256485,30.85124 1.607348,18.1439 13.191442,35.08065 29.591888,43.04261 8.29224,4.155 17.66045,5.97781 26.90749,5.64781 27.10671,-0.0528 54.21355,-0.004 81.32031,-0.0185 53.41862,0.002 106.83724,0.004 160.25586,0.006 -0.29044,7.28298 -0.01,14.57266 -0.1122,21.85859 -0.001,2.08099 -0.002,4.16198 -0.003,6.24297 -84.09704,0.008 -168.19453,0.0135 -252.29127,0.0639 -18.0539,0.68253 -35.411791,11.22139 -44.274536,26.97709 -5.209006,9.01566 -7.563603,19.55521 -7.139755,29.9313 0.0887,12.86287 -0.185611,25.73237 0.234314,38.59021 1.428367,18.07649 12.812506,35.00285 29.010827,43.15127 8.56733,4.42025 18.32038,6.32786 27.92643,5.94768 30.94475,-0.0501 61.88959,-0.006 92.83438,-0.019 56.98453,0.002 113.96955,0.0102 170.95376,-0.0599 17.89302,-0.7179 35.09934,-11.08972 43.99277,-26.64909 5.19991,-8.92045 7.6993,-19.33893 7.32864,-29.64475 -0.0491,-7.7218 -0.0105,-15.44375 -0.015,-23.16563 10.31328,-0.0337 20.63462,0.16529 30.94107,-0.26444 17.52565,-1.59593 33.90802,-12.47636 42.14144,-28.03558 4.68529,-8.65536 6.79456,-18.60273 6.43849,-28.41481 -0.0986,-12.85755 0.16468,-25.72095 -0.21273,-38.5743 -1.34408,-17.93006 -12.44854,-34.79712 -28.41371,-43.08053 -5.62786,-3.03175 -11.83254,-4.83468 -18.10437,-5.94207 -3.17994,-0.70185 -6.4479,-0.17637 -9.66753,-0.35252 -5.91458,-0.002 -11.82917,-0.004 -17.74375,-0.006 0.28745,-6.97852 0.008,-13.96384 0.10463,-20.94531 -0.0367,-8.10999 0.16505,-16.23249 -0.3324,-24.33115 -1.81322,-17.76819 -13.19669,-34.24838 -29.21421,-42.17048 -8.6789,-4.42535 -18.56199,-6.22606 -28.25841,-5.76596 -81.96641,-0.004 -163.93281,-0.008 -245.89922,-0.0117 -0.004,-7.53972 0.003,-15.07949 -0.0351,-22.61914 84.11331,-0.008 168.22708,-0.0136 252.34009,-0.0638 17.85542,-0.68054 35.02985,-10.99342 43.97199,-26.47181 5.44103,-9.18105 7.8978,-19.994251 7.42826,-30.626491 -0.0788,-12.699473 0.1539,-25.40386 -0.20117,-38.099635 C 450.28859,31.520581 439.26839,14.658532 423.34531,6.3638424 415.18963,2.0197044 405.90823,-0.19622363 396.66902,0.01364137 Z M 133.48738,20.019501 c 88.70707,0.0036 177.41451,0.0075 266.12135,0.04821 12.07211,0.442328 23.58777,7.99189 28.77601,18.907805 2.62265,5.307992 3.67567,11.299562 3.4365,17.192808 -0.0383,12.388863 0.11763,24.780372 -0.12893,37.167255 -0.63788,11.265191 -7.55571,21.878691 -17.48243,27.192331 -5.42669,2.99575 -11.68455,4.35978 -17.86547,4.13028 -90.37226,0.004 -180.74453,0.008 -271.1168,0.0117 1.36977,6.48752 3.25276,12.99876 2.91485,19.69648 -0.0804,12.04625 0.12219,24.09679 -0.18089,36.13992 -0.16846,2.26091 -0.33686,4.52184 -0.50544,6.78274 90.7585,0.003 181.51739,0.007 272.27563,0.0524 12.47299,0.50837 24.32117,8.6061 29.22145,20.10608 2.39172,5.34786 3.17019,11.29494 2.86858,17.11266 -0.0183,12.20353 0.13158,24.41071 -0.12743,36.61154 -0.42015,4.60748 -2.04565,8.98267 -3.6855,13.27166 0.68269,2.3351 1.99592,4.76558 4.38454,5.69167 1.99303,0.72269 4.1546,0.27106 6.22445,0.38646 11.96426,0.0292 23.93117,-0.0973 35.89341,0.14053 8.17718,0.46857 16.02576,4.28569 21.75404,10.08745 5.84716,5.9415 9.29128,14.12453 9.56031,22.44763 0.10326,3.48109 -0.0231,6.96488 0.025,10.44743 -0.008,10.30821 0.0967,20.62076 -0.15473,30.92566 -1.05272,12.42645 -9.65434,23.89646 -21.34197,28.29145 -4.81739,1.9087 -10.05636,2.53662 -15.21064,2.32974 -14.35469,-6.1e-4 -28.70938,-9.9e-4 -43.06406,-0.002 0.42635,13.0862 0.20828,26.18012 0.26659,39.27031 -0.0439,4.35073 0.13593,8.74744 -0.63786,13.04774 -2.22925,11.36703 -10.6819,21.36263 -21.65969,25.17596 -4.79199,1.75203 -9.95122,2.23165 -15.02217,2.03135 -87.47986,-0.004 -174.96008,-0.005 -262.43971,-0.0542 -12.73249,-0.31871 -24.86969,-8.64153 -29.750038,-20.40824 -2.268598,-5.24132 -3.028347,-11.03292 -2.732073,-16.70898 0.01969,-12.19846 -0.123252,-24.3999 0.119023,-36.59614 0.877706,-11.27592 7.913198,-21.85588 17.981598,-27.01505 5.30034,-2.81345 11.34973,-4.05055 17.32939,-3.88284 11.37636,0.0447 22.75342,0.002 34.13009,0.0164 78.34466,-0.002 156.68933,-0.004 235.03399,-0.005 -0.69401,-5.27876 -1.06245,-10.60335 -0.91699,-15.92891 0.0746,-11.09721 -0.15914,-22.20091 0.19995,-33.29331 0.12875,-1.35242 0.42741,-2.88974 0.71899,-4.08052 0.19581,-0.80227 0.3851,-1.48721 0.64493,-2.33285 0.48541,-1.62745 1.05213,-3.2011 1.61684,-4.72629 0.5724,-1.2901 0.15467,-2.79323 -0.36529,-4.04046 -1.02502,-2.32495 -3.51097,-3.96193 -6.0789,-3.73093 -37.22143,0.0728 -74.44297,0.014 -111.66445,0.0271 -50.3727,-0.006 -100.74576,-0.0188 -151.11823,-0.0435 -12.34467,-0.46256 -24.07667,-8.38736 -29.09585,-19.68021 -2.4053,-5.20092 -3.318992,-11 -3.079234,-16.70209 0.06297,-12.30563 -0.121962,-24.61857 0.153856,-36.91913 -0.139445,-3.05397 -2.61247,-6.01163 -5.76994,-6.13076 -2.701962,-0.16418 -5.410568,0.0293 -8.115606,-0.045 -11.69866,-0.0232 -23.400706,0.0844 -35.096744,-0.15775 -6.670383,-0.57188 -13.114978,-3.27587 -18.289194,-7.50826 -0.58182,-0.46324 -1.503095,-1.27652 -2.011719,-1.77736 -6.35844,-6.09181 -10.211232,-14.73988 -10.340376,-23.55834 -0.09665,-6.27253 0.01339,-12.54715 -0.03269,-18.82054 -0.0026,-7.57621 -0.08214,-15.15935 0.206045,-22.72984 0.716174,-6.95562 3.756893,-13.6139 8.387722,-18.83462 0.332485,-0.3656 0.886985,-0.97154 1.335578,-1.40785 3.903784,-3.89646 8.773935,-6.82057 14.055048,-8.41637 0.296452,-0.0816 0.990346,-0.2868 1.441406,-0.39649 3.981961,-1.08632 8.181735,-1.13157 12.297656,-1.06 14.884504,0.0104 29.769009,0.009 44.653512,0.005 -1.27133,-5.87239 -2.86177,-11.753651 -2.927731,-17.828131 0.126081,-6.53724 0.03234,-13.078577 0.05029,-19.617577 0.01397,-6.647894 -0.01555,-13.300923 0.189856,-19.944588 1.134595,-12.124676 9.415605,-23.313586 20.756735,-27.806799 4.10459,-1.690575 8.5443,-2.56472 12.98359,-2.554869 z" />
  <!-- Generator: Adobe Illustrator 30.2.1, SVG Export Plug-In . SVG Version: 2.1.1 Build 1)  -->
  <defs
     id="defs4">
    <style
       id="style2">
      .st0 {
        fill: #ffffff;
      }
    </style>
  </defs>
</svg>
